<?xml version="1.0" encoding="UTF-8"?>
<svg id="Capa_2" data-name="Capa 2" xmlns="http://www.w3.org/2000/svg" viewBox="0 0 439.03 334.07">
  <defs>
    <style>
      .cls-1 {
        fill: #fff;
      }
    </style>
  </defs>
  <g id="Capa_1-2" data-name="Capa 1">
    <g>
      <path class="cls-1" d="M64.42,159.67c-10.99,2.65-21.28,2.81-30.88.41-9.6-2.4-17.42-7.74-23.47-16.18C4.02,135.47.7,123.64.1,108.31c-.58-14.71,1.46-27.8,6.13-39.26,4.67-11.45,11.43-21.13,20.29-28.87,8.86-7.74,19.28-13.24,31.28-16.36,2.84-.74,6.08-1.18,9.73-1.33,3.09-.12,5.88.04,8.34.46.78.14,1.59.01,2.25-.42,1.13-.74,2.52-1.52,4.19-2.34,2.18-1.08,4.39-2.11,6.63-3.12,2.24-1.01,4.01-1.65,5.31-1.93,1.84,3.67,3.27,8.16,4.27,13.48,1,5.32,1.74,10.63,2.21,15.94.47,5.31.79,9.85.94,13.63-7.32,1.5-14.64,3.1-21.95,4.78-1.37-7.94-3.93-14.07-7.69-18.37-3.76-4.3-8.48-5.73-14.16-4.26-7.49,1.93-13.5,7.06-18.05,15.29-4.56,8.23-6.52,20.19-5.89,35.82.52,12.89,2.73,22.66,6.64,29.39,3.91,6.72,8.91,10.96,14.98,12.78,6.07,1.82,12.53,1.92,19.39.35,5.95-1.37,10.96-3.58,15.01-6.67,4.06-3.1,9.54-10.43,11.13-13.18,1.73.79,4.03,2.94,5.09,5.07,1.07,2.15,1.63,4.1,1.71,5.86.12,2.91-4.9,10.17-7.94,14.28-3.04,4.11-7.52,7.99-13.44,11.67-5.93,3.69-13.29,6.55-22.08,8.67Z"/>
      <path class="cls-1" d="M121.95,124.92c-1.19-1.08-2.11-2.25-2.76-3.51-.65-1.26-.99-2.72-.99-4.38,3.11-.46,5.36-1.43,6.75-2.94,1.39-1.5,2.07-3.81,2.05-6.94-.17-27.66-.34-55.31-.51-82.94-.02-2.39-.73-4.19-2.13-5.38-1.4-1.19-4.36-1.44-8.87-.68-.01-2.08-.03-4.16-.04-6.23,2.67-1.9,5.8-3.69,9.4-5.34,3.59-1.65,7.16-3.06,10.7-4.24,3.54-1.18,6.49-1.92,8.85-2.22,2.47-.32,4.27-.02,5.41.88,1.13.91,1.71,2.67,1.73,5.28.2,32.58.4,65.18.6,97.8.02,3.25.7,5.42,2.05,6.54,1.35,1.12,3.64,1.52,6.86,1.22,0,1.68-.33,3.22-1.02,4.65-.69,1.43-1.62,2.82-2.79,4.19-11.75,1.13-23.52,2.54-35.27,4.23Z"/>
      <path class="cls-1" d="M286.38,120.59c-7.39-.58-13.18-3.21-17.33-8.01-4.16-4.79-6.26-11.03-6.29-18.78-.07-14.6-.14-29.19-.22-43.79,0-1.8-.71-3.1-2.09-3.89-1.39-.78-3.3-1.22-5.75-1.28-.01-2.33-.02-4.66-.04-7,1.37-1.13,4.27-2.3,8.67-3.48,4.4-1.17,9.36-1.62,14.87-1.31,4.13.23,6.86.89,8.19,1.94,1.32,1.05,2,3.44,2.01,7.16.08,17.89.16,35.78.24,53.69.01,3.2.55,5.69,1.61,7.48,1.06,1.79,2.91,2.79,5.55,3.03,2.21.2,4.34-.29,6.39-1.48,2.05-1.18,3.75-2.62,5.11-4.28-.06-15.87-.12-31.73-.19-47.58,0-1.81-.8-3.18-2.39-4.07-1.59-.89-3.75-1.47-6.49-1.7,0-2.35-.02-4.69-.03-7.04,1.47-1.05,4.37-2.05,8.68-2.98,4.31-.92,9.41-1.07,15.29-.38,4.09.48,6.86,1.32,8.34,2.47,1.47,1.16,2.21,3.61,2.22,7.36.07,19.71.13,39.44.19,59.17,0,2.57.67,4.81,1.98,6.71,1.31,1.91,3.16,3.14,5.56,3.73,0,1.5,0,3.01.01,4.51-1.66,1.79-4.29,2.91-7.88,3.41-3.6.5-7.07.54-10.42.11-3.46-.45-6.47-1.74-9.05-3.91-2.58-2.17-4.3-5.05-5.15-8.67-5.12,6.72-12.32,9.61-21.61,8.88Z"/>
      <path class="cls-1" d="M379.92,135.11c-5.55-1.18-10.78-3.72-15.7-7.61-4.91-3.89-8.89-9.09-11.92-15.61-3.03-6.53-4.55-14.34-4.58-23.47-.03-10.85,1.9-19.56,5.77-26.13,3.88-6.55,8.95-11.08,15.2-13.47,6.25-2.39,12.93-2.86,20.02-1.35,1.33.29,2.82.66,4.46,1.13,1.64.46,3.28,1,4.92,1.59-.16-3.28-.32-6.56-.47-9.83,0-2.7,0-5.4,0-8.1,0-2.49-.67-4.58-2.01-6.28-1.34-1.7-4.11-3.01-8.32-3.89,0-2.21,0-4.42-.01-6.64,2.57-.98,5.6-1.68,9.09-2.11,3.48-.42,6.91-.58,10.28-.49,3.37.09,6.07.4,8.11.9,2.34.58,4.04,1.58,5.11,3,1.07,1.41,1.6,3.47,1.6,6.18.01,34.04.02,68.1.02,102.19,0,5.32,2.43,9.12,7.26,11.5.05,1.54.1,3.07.15,4.61-1.41,1.65-3.58,2.58-6.5,2.8-2.93.21-5.91-.09-8.95-.89-2.64-.69-5.43-2.05-8.38-4.04-2.95-1.99-5.04-4.42-6.27-7.31-2.14,2.51-4.77,3.92-7.88,4.23-3.12.31-6.78,0-10.99-.9ZM390.51,123.68c3.17.72,5.57.31,7.2-1.24-.02-18.94-.04-37.86-.06-56.78-2.15-3.63-5.02-5.84-8.62-6.62-2.77-.6-5.29-.13-7.55,1.4-2.26,1.54-4.06,4.47-5.39,8.78-1.33,4.32-1.99,10.41-1.97,18.28.02,11.11,1.61,19.63,4.76,25.63,3.15,5.99,7.03,9.5,11.63,10.55Z"/>
    </g>
    <g>
      <path class="cls-1" d="M196.79,235.61c-3.86.71-8.31,1.41-13.37,2.16-5.06.75-11.33,2-18.8,3.89-1.72-1.76-2.54-4.11-2.46-7.07,2.75-.72,4.72-1.67,5.88-2.9,1.16-1.22,1.78-2.98,1.84-5.28.55-19.28,1.1-38.57,1.65-57.86.07-2.3-.46-3.78-1.57-4.44-1.11-.66-3.05-.65-5.8.06.09-2.95,1.05-5.77,2.9-8.44,5.76-1.46,10.37-2.59,13.8-3.48,3.43-.89,6.35-1.61,8.77-2.18,2.41-.57,4.85-1.1,7.31-1.56,7.13-1.34,12.99-1.66,17.57-1.09,4.57.57,8.13,1.73,10.68,3.41,2.54,1.68,4.29,3.68,5.26,5.98.96,2.3,1.41,4.64,1.34,7.02-.13,4.6-1.44,8.67-3.93,12.24-2.49,3.58-6.61,6.91-12.36,10.12,7.04.44,12.16,2.12,15.33,4.86,3.17,2.74,4.67,7.43,4.48,13.99-.09,3.2-.72,6.36-1.88,9.47-1.16,3.12-3.16,6.01-5.99,8.72-2.84,2.71-6.75,5.09-11.73,7.19-4.98,2.11-11.3,3.78-18.93,5.18ZM194.76,186.77c5.98-1.14,10.27-3.16,12.85-6.2,2.58-3.04,3.94-6.75,4.06-11.19.12-4.43-.99-7.77-3.34-10-2.35-2.23-6.16-2.9-11.4-1.91-.82.15-1.7.36-2.65.63-.94.27-1.75.55-2.4.84-.27,9.44-.54,18.88-.81,28.31.57-.03,1.18-.09,1.84-.18.65-.09,1.27-.19,1.84-.29ZM195.08,226.99c11.48-2.14,17.4-7.87,17.67-17.82.16-5.57-1.14-9.56-3.9-11.89-2.76-2.33-7.43-2.96-13.98-1.71-.66.13-1.38.29-2.15.48-.78.19-1.41.34-1.9.44-.3,10.38-.59,20.76-.89,31.14.57-.03,1.3-.1,2.2-.19.89-.09,1.88-.24,2.95-.44Z"/>
      <path class="cls-1" d="M242.64,228.38c-.88-.83-1.56-1.74-2.02-2.77-.47-1.02-.68-2.23-.64-3.62,2.4-.22,4.19-.88,5.38-2.01,1.19-1.12,1.82-2.91,1.89-5.37.34-11.9.68-23.8,1.02-35.7.06-2.13-.41-3.69-1.42-4.68-1.01-.98-3.2-1.33-6.59-1.01.05-1.81.1-3.61.15-5.42,1.26-.86,3.18-1.88,5.78-3.04,2.59-1.16,5.41-2.17,8.45-3.03,3.04-.86,5.76-1.34,8.17-1.46,1.9-.1,3.26.27,4.07,1.1.8.82,1.18,2.27,1.12,4.32-.46,15.96-.91,31.92-1.37,47.89-.07,2.46.5,4.16,1.72,5.1,1.22.94,3.03,1.37,5.43,1.31-.04,1.4-.32,2.63-.85,3.71-.53,1.08-1.26,2.08-2.2,3.01-9.37.28-18.74.83-28.09,1.65Z"/>
      <path class="cls-1" d="M303.97,227.66c-3.48-.12-6.66-.83-9.52-2.15-2.87-1.32-5.15-3.52-6.84-6.65-1.7-3.12-2.47-7.38-2.31-12.8.32-11.28.64-22.57.97-33.85-2.61.01-5.23.04-7.84.09.07-2.5.14-5.01.21-7.51,2.25-.37,4.4-1.8,6.46-4.27,2.06-2.47,3.86-5.51,5.42-9.12,1.55-3.6,2.59-7.21,3.11-10.81,1.5-.23,2.87-.34,4.11-.32,3.31.06,5.59,1.07,6.82,3,1.23,1.93,1.82,3.71,1.78,5.36-.12,4.31-.25,8.62-.37,12.93,4.81.17,9.61.41,14.41.72-.05,1.97-.22,3.91-.48,5.83-.26,1.92-.87,3.58-1.82,5-4.06-.25-8.12-.44-12.18-.59-.33,11.57-.66,23.14-.99,34.71-.07,2.63.41,4.39,1.47,5.29,1.05.9,2.41,1.39,4.06,1.47,1.66.07,3.34-.27,5.07-1.03,1.72-.77,3.1-1.68,4.12-2.77.89.8,1.48,1.93,1.77,3.39.29,1.46.42,2.56.4,3.3-.05,1.81-.72,3.57-2.02,5.29-1.29,1.73-3.26,3.1-5.9,4.14-2.64,1.05-5.95,1.48-9.93,1.34Z"/>
      <path class="cls-1" d="M355.86,232.3c-9.21-1.28-16.5-4.96-21.83-11.3-5.33-6.33-7.85-14.65-7.55-25.07.2-7.14,1.75-13.21,4.62-18.2,2.87-4.98,6.69-8.64,11.43-10.94,4.74-2.29,10.08-3.05,16-2.22,7.4,1.04,13.26,4.19,17.6,9.29,4.34,5.11,6.39,11.61,6.17,19.39-.09,3.12-.68,5.75-1.77,7.89-1.09,2.15-3.23,2.91-6.42,2.36-8.84-1.55-17.72-2.86-26.62-3.93.06,6.51,1.44,11.29,4.12,14.35,2.68,3.06,6.24,4.91,10.68,5.58,2.79.42,5.39.41,7.79-.05,2.4-.46,4.65-1.28,6.74-2.47.72.79,1.28,1.91,1.69,3.34.41,1.44.6,2.61.58,3.51-.04,1.31-1,2.75-2.9,4.35-1.9,1.6-4.57,2.83-8.01,3.75-3.45.92-7.55,1.02-12.32.36ZM347.76,190.23c4.16.5,8.32,1.05,12.47,1.65,1.4.2,2.3-.19,2.7-1.21.4-1.01.62-2.3.67-3.86.15-5.25-.39-8.82-1.61-10.69-1.23-1.87-2.7-2.93-4.43-3.17-1.4-.19-2.81.15-4.24,1.04-1.43.89-2.64,2.61-3.62,5.16-.98,2.56-1.63,6.24-1.93,11.07Z"/>
      <path class="cls-1" d="M411.87,243.68c-2.91-.76-5.83-1.82-8.77-3.19-2.94-1.37-5.64-2.94-8.08-4.73-2.44-1.78-4.42-3.76-5.91-5.93-1.49-2.17-2.21-4.44-2.14-6.82.09-2.88.96-5.02,2.64-6.45,1.68-1.42,3.78-1.86,6.3-1.29,2.28.51,4.18,1.7,5.72,3.55,1.54,1.85,2.28,3.98,2.21,6.35-.03,1.07-.22,1.95-.56,2.65-.35.7-.86,1.42-1.53,2.17.71.91,1.99,1.75,3.84,2.54,1.85.78,3.67,1.42,5.45,1.87,2.83.73,5.02.78,6.58.13,1.56-.65,2.36-1.75,2.41-3.31.07-2.46-1.16-4.93-3.69-7.4-2.53-2.45-5.42-5.02-8.69-7.65-2.95-2.39-5.88-4.84-8.79-7.37-2.91-2.53-5.33-5.39-7.24-8.61-1.92-3.22-2.81-6.94-2.69-11.22.15-5.41,2.52-9.44,7.1-11.98,4.57-2.53,10.96-2.84,19.11-.69,5.65,1.49,10.13,3.5,13.46,5.93,3.33,2.42,5.71,4.99,7.17,7.63,1.46,2.65,2.15,5.17,2.08,7.55-.07,2.54-.91,4.33-2.51,5.36-1.6,1.04-3.53,1.21-5.77.54-2-.6-3.75-1.75-5.24-3.45-1.49-1.7-2.21-3.59-2.15-5.64.03-.98.22-2,.57-3.06.35-1.06.82-1.88,1.41-2.46-.86-.99-1.88-1.79-3.03-2.4-1.16-.61-2.55-1.14-4.16-1.57-2.66-.72-4.72-.6-6.17.31-1.45.91-2.2,2.27-2.26,4.08-.08,2.79,1.17,5.41,3.75,7.9,2.57,2.48,5.45,5.03,8.62,7.65,2.93,2.39,5.8,4.91,8.59,7.57,2.79,2.66,5.11,5.65,6.95,8.96,1.84,3.32,2.7,7.11,2.57,11.38-.13,4.6-1.51,7.85-4.14,9.8-2.64,1.95-5.99,2.93-10.08,2.98-4.09.05-8.4-.52-12.92-1.69Z"/>
    </g>
    <path class="cls-1" d="M246.71,255.2c0-.44-.24-.87-.65-1.05-.12-.05-.25-.08-.39-.09-.54-.02-1.05.36-1.2.94-4.55,11.49-11.69,14.66-13.56,15.4-12.84,5.07-29.68-5.17-33.5-7.87-.38-.27-.79-.72-1.56-.94-3.94-1.14-8.96,5.61-19.22,5.29-13.73.2-25.36-9.18-28.54-21.96-.26-1.06-.93-1.99-1.85-2.57-13.88-7.99-17.92-29.48-7.57-42.02.98-1.29,1.15-3.02.45-4.49-6.83-13.38-.66-31.44,12.38-37.96,2.02-1.1,1.74-4.09-.45-4.78-57.21-9.43-107.59,56.7-82.42,124.45,37.78,79.73,178.15,77.61,178.07-22.35Z"/>
    <path class="cls-1" d="M256.35,155.28c-3.57.21-6.37-.63-8.42-2.56-2.05-1.93-3.02-4.66-2.93-8.18.1-3.45,1.27-6.33,3.53-8.63,2.25-2.3,5.16-3.58,8.73-3.78,3.64-.22,6.5.73,8.55,2.77,2.05,2.05,3.03,4.8,2.93,8.25-.1,3.53-1.28,6.37-3.54,8.56-2.26,2.18-5.21,3.37-8.85,3.58Z"/>
    <path class="cls-1" d="M207.08,119.61c-7.6.22-14.36-1.07-20.27-3.94-5.91-2.87-10.53-7.26-13.84-13.25-3.31-5.99-4.99-13.56-5.05-22.79-.06-9.85,1.6-18.28,5-25.27,3.39-6.99,8.14-12.47,14.23-16.34,6.09-3.87,13.1-6.01,21.02-6.32,7.71-.3,14.48,1.19,20.32,4.39,5.84,3.21,10.4,8.06,13.68,14.49,3.28,6.44,4.95,14.39,5,23.81.05,9.86-1.61,18.11-4.98,24.77-3.38,6.68-8.09,11.67-14.15,15.06-6.07,3.4-13.05,5.16-20.97,5.39ZM208.3,108.19c2.25-.07,4.19-.9,5.84-2.52,1.65-1.62,2.92-4.57,3.8-8.86.88-4.29,1.3-10.5,1.26-18.62-.06-9.92-.58-17.43-1.57-22.52-.99-5.09-2.4-8.51-4.23-10.25-1.83-1.73-3.98-2.56-6.44-2.46-2.25.09-4.23.97-5.93,2.62-1.71,1.65-3,4.67-3.89,9.03-.89,4.37-1.3,10.63-1.25,18.84.06,9.79.61,17.17,1.66,22.17,1.04,5,2.48,8.37,4.32,10.09,1.83,1.72,3.98,2.54,6.44,2.47Z"/>
  </g>
</svg>