<?xml version="1.0" encoding="UTF-8"?>
<svg id="Capa_2" data-name="Capa 2" xmlns="http://www.w3.org/2000/svg" viewBox="0 0 184.72 181.87">
  <defs>
    <style>
      .cls-1 {
        fill: #fff;
      }
    </style>
  </defs>
  <g id="Capa_1-2" data-name="Capa 1">
    <path class="cls-1" d="M184.72,103c0-.44-.24-.87-.65-1.05-.12-.05-.25-.08-.39-.09-.54-.02-1.05.36-1.2.94-4.55,11.49-11.69,14.66-13.56,15.4-12.84,5.07-29.68-5.17-33.5-7.87-.38-.27-.79-.72-1.56-.94-3.94-1.14-8.96,5.61-19.22,5.29-13.73.2-25.36-9.18-28.54-21.96-.26-1.06-.93-1.99-1.85-2.57-13.88-7.99-17.92-29.48-7.57-42.02.98-1.29,1.15-3.02.45-4.49-6.83-13.38-.66-31.44,12.38-37.96,2.02-1.1,1.74-4.09-.45-4.78C31.86-8.52-18.52,57.6,6.65,125.35c37.78,79.73,178.15,77.61,178.07-22.35Z"/>
  </g>
</svg>